<svg xmlns="http://www.w3.org/2000/svg" viewBox="0 0 140.91 175.87"><defs><style>.cls-1{isolation:isolate;}.cls-2{fill:#f8f9fb;mix-blend-mode:multiply;}.cls-3{fill:#fbf7f1;}.cls-4{fill:#fbf1f4;}</style></defs><g class="cls-1"><g id="Layer_1" data-name="Layer 1"><path class="cls-2" d="M117.26,189.15C97.85,196,74,154.55,63,149.1,41.45,138.39,4.43,141.83,19,117.17c6.71-11.41,20.68-26.87,26-35.83,10.63-18.09-10.19-50.54,8.59-60s34.64,11.9,53,18.93C118.59,44.92,131.58,42.62,144,45c8.52,1.67,16,11.24,11,20.49C124.28,122.79,150.18,177.6,117.26,189.15Z" transform="translate(-15.66 -18.97)"/><path class="cls-3" d="M36.55,38a4.73,4.73,0,1,1-4.73-4.54A4.64,4.64,0,0,1,36.55,38Z" transform="translate(-15.66 -18.97)"/><path class="cls-4" d="M41.46,163.62A1.73,1.73,0,0,1,40,165.51a1.94,1.94,0,0,1,0-3.78A1.74,1.74,0,0,1,41.46,163.62Z" transform="translate(-15.66 -18.97)"/><path class="cls-4" d="M152.2,160.63a4.58,4.58,0,1,1-4.54-4A4.28,4.28,0,0,1,152.2,160.63Z" transform="translate(-15.66 -18.97)"/><path class="cls-3" d="M94.75,189.36c0,3-2.88,5.48-6.42,5.48s-6.43-2.46-6.43-5.48,2.88-5.48,6.43-5.48S94.75,186.33,94.75,189.36Z" transform="translate(-15.66 -18.97)"/><path class="cls-4" d="M118.48,29.25a3.8,3.8,0,0,1-7.56,0,3.8,3.8,0,0,1,7.56,0Z" transform="translate(-15.66 -18.97)"/></g></g></svg>